<svg width="754" height="183" viewBox="0 0 754 183" fill="none" xmlns="http://www.w3.org/2000/svg">
<path d="M181.861 91.2882C181.848 109.405 176.459 127.107 166.381 142.139C156.303 157.172 141.991 168.853 125.27 175.695C108.55 182.536 90.177 184.229 72.4942 180.555C54.8113 176.882 38.619 168.01 25.981 155.07C13.3429 142.13 4.83144 125.708 1.53137 107.896C-1.76871 90.0851 0.292047 71.6913 7.45101 55.0594C14.61 38.4274 26.5429 24.3106 41.729 14.508C56.9151 4.70539 74.6665 -0.339026 92.7209 0.0176929C116.532 0.490862 139.209 10.3165 155.877 27.383C172.545 44.4495 181.875 67.3948 181.861 91.2882ZM75.1477 98.5469C74.7849 98.4767 74.427 98.3831 74.0762 98.2668C73.2975 97.9905 72.5374 97.6642 71.8006 97.2899C70.2021 96.404 68.2824 95.9137 67.4099 94.0579C67.3529 93.8924 67.2607 93.7412 67.1397 93.6149C67.0187 93.4886 66.8717 93.3903 66.709 93.3267C66.5463 93.263 66.3718 93.2357 66.1975 93.2465C66.0232 93.2573 65.8534 93.306 65.6997 93.3892C65.2533 93.5243 64.7823 93.5574 64.3214 93.4859C63.8606 93.4144 63.4216 93.2401 63.0367 92.976C60.921 91.6965 59.1291 89.9432 57.8014 87.8533C57.5403 87.2929 57.3402 86.7059 57.2045 86.1025C57.0998 85.8154 56.9532 85.3742 56.7473 85.3252C54.9715 84.7251 53.4661 83.5113 52.4997 81.9007C51.2363 80.262 51.2049 79.8803 52.3566 78.1716C53.3374 76.715 54.4124 75.3143 55.4978 73.9347C57.779 70.6185 60.4185 67.5653 63.3682 64.8308C64.8062 63.6578 66.0557 62.2572 67.3994 60.9616C67.6862 60.7108 67.9106 60.3963 68.0549 60.0431C68.1991 59.6899 68.2591 59.3078 68.2301 58.9272C68.1665 58.2638 68.2722 57.595 68.5373 56.9839C69.4691 55.1596 70.4778 53.3598 71.5563 51.6196C74.038 48.061 77.2831 45.1056 81.0531 42.9708C87.8311 38.6184 94.7906 34.5672 101.781 30.5579C103.664 29.7971 105.177 28.3326 106.004 26.4734C106.83 24.6142 106.904 22.5057 106.211 20.5926C105.928 19.6083 105.392 18.7159 104.657 18.0049C103.922 17.2938 103.013 16.7891 102.022 16.5413C99.0882 16.0188 96.1235 15.6879 93.1467 15.5504C88.4746 15.3867 83.7979 15.6905 79.1859 16.4573C74.7224 17.1338 70.3306 18.2215 66.0662 19.7067C59.0091 22.1655 52.3578 25.6684 46.3325 30.0992C41.5653 33.6037 37.2231 37.6557 33.3943 42.1725C29.8002 46.3118 26.7224 50.8753 24.229 55.7618C22.4681 59.2534 20.9146 62.8464 19.5766 66.522C18.5458 69.7127 17.6802 72.9548 16.9834 76.2352C16.0419 80.3596 15.5342 84.5716 15.4686 88.8022C15.4033 91.6989 15.5199 94.5969 15.8176 97.4789C16.1046 100.757 16.5706 104.018 17.2137 107.245C18.4127 112.904 20.2877 118.398 22.7981 123.607C25.6778 129.71 29.3795 135.386 33.7992 140.478C44.8017 153.303 59.7935 162.032 76.3518 165.254C80.8687 166.2 85.4717 166.669 90.0858 166.655C92.8779 166.627 95.6701 166.504 98.4623 166.305C99.99 166.263 101.506 166.028 102.975 165.604C107.052 164.204 111.091 162.709 115.093 161.119C119.448 159.397 123.534 157.059 127.229 154.176C133.795 148.978 138.471 141.754 140.533 133.622C141.426 130.398 141.552 127.008 140.9 123.726C140.336 120.652 139.182 117.718 137.504 115.085C134.515 110.426 129.952 107.005 124.653 105.448C120.665 104.194 116.405 104.097 112.364 105.168C107.423 106.389 103.034 109.242 99.9037 113.267C99.6485 113.575 99.358 113.851 99.0382 114.09C97.4327 115.33 95.8062 116.541 94.2252 117.798C94.043 117.995 93.7905 118.112 93.5229 118.122C93.2554 118.133 92.9946 118.036 92.7977 117.854C90.7838 116.216 88.756 114.608 86.7771 112.931C85.7547 112.073 84.9191 111.013 84.3223 109.818C83.7255 108.622 83.3801 107.316 83.3078 105.981C83.3741 105.325 83.2515 104.663 82.9546 104.075C82.6576 103.487 82.1988 102.996 81.6325 102.661C80.3811 101.786 79.2221 100.786 78.1737 99.6744C78.0579 99.5238 77.9639 99.3576 77.8945 99.1807C78.1725 99.1021 78.4609 99.0667 78.7496 99.0756C80.9094 99.4202 83.1052 99.4768 85.2798 99.2437C87.3059 99.297 89.3121 98.8306 91.1084 97.8886C93.2812 97.0449 95.1907 95.6357 96.6404 93.8059C97.2726 92.9892 97.6673 92.013 97.7806 90.9852C97.894 89.9575 97.7216 88.9183 97.2826 87.9828C96.6706 86.9087 95.8201 85.9905 94.7972 85.2995C93.7742 84.6085 92.6064 84.1631 91.3841 83.9981C88.0888 83.3745 84.6802 83.8801 81.7058 85.4337C79.198 86.8097 77.0027 88.6937 75.2594 90.9661C74.747 91.5296 74.4084 92.23 74.2845 92.9826C74.1606 93.7351 74.2568 94.5076 74.5613 95.2065C74.8233 96.3095 75.0191 97.4274 75.1477 98.5539V98.5469ZM80.9065 61.0806C81.4036 60.9671 81.8681 60.7407 82.2642 60.4189C83.3256 59.2038 84.2895 57.9066 85.1471 56.5392C85.5555 55.8844 86.2675 55.0826 85.5171 54.1792C84.7667 53.2758 83.772 53.8605 82.9657 54.1792C80.8355 54.7401 78.9324 55.9529 77.521 57.6492C77.3723 57.8806 77.2807 58.1443 77.254 58.4183C77.2273 58.6924 77.2662 58.9689 77.3675 59.2248C77.7915 59.7752 78.3299 60.2263 78.9453 60.5468C79.5607 60.8673 80.2383 61.0494 80.931 61.0806H80.9065Z" fill="#133E87"/>
<path d="M254.063 115.537H223.729C219.132 115.693 214.576 114.622 210.526 112.435C207.107 110.525 204.332 107.637 202.554 104.14C200.792 100.603 199.896 96.6961 199.94 92.7425C199.972 87.7642 201.217 82.8693 203.566 78.4843C206.07 73.6445 209.879 69.6076 214.558 66.8335C219.237 64.0595 224.599 62.6598 230.033 62.794H277.15L267.277 143.819H250.625L254.063 115.537ZM227.774 80.5747C226.357 80.4984 224.94 80.7245 223.617 81.2382C222.293 81.7518 221.093 82.5413 220.096 83.5545C218.291 85.4021 217.288 87.8903 217.304 90.477C217.257 92.6666 218.068 94.7873 219.562 96.3841C220.377 97.2202 221.362 97.8715 222.449 98.2943C223.536 98.7171 224.701 98.9014 225.865 98.8351H255.961L258.223 80.5782L227.774 80.5747Z" fill="#133E87"/>
<path d="M292.583 63.7454H309.357L299.584 143.818H282.933L292.583 63.7454Z" fill="#133E87"/>
<path d="M316.489 115.656V98.95H356.574C357.879 99.0205 359.185 98.8241 360.412 98.3726C361.639 97.9212 362.762 97.2241 363.712 96.3239C365.192 94.8677 366.081 92.9127 366.207 90.837V88.449C366.082 86.372 365.192 84.4156 363.712 82.9586C362.751 82.081 361.624 81.4071 360.397 80.9769C359.171 80.5467 357.871 80.3692 356.574 80.455H328.028V63.7457H356.574C361.608 63.5931 366.586 64.8324 370.964 67.3278C374.768 69.5452 377.895 72.7635 380.008 76.6348C381.889 80.2916 382.906 84.3343 382.978 88.449V91.0751C382.826 95.1027 381.813 99.0505 380.008 102.651C377.921 106.572 374.79 109.836 370.964 112.077C366.586 114.571 361.607 115.809 356.574 115.656H316.489Z" fill="#133E87"/>
<path d="M463.491 92.7414C463.87 94.2534 464.679 95.6224 465.819 96.6821C466.959 97.7419 468.381 98.4469 469.912 98.7115C470.855 98.8756 471.811 98.9553 472.767 98.9496H474.314V115.655H471.577C467.962 115.676 464.374 115.029 460.992 113.747L457.306 143.818H440.654L444.102 115.536H413.762C409.164 115.691 404.607 114.621 400.555 112.434C397.137 110.524 394.363 107.637 392.587 104.139C390.823 100.603 389.926 96.6954 389.969 92.7414C390.001 87.7631 391.246 82.8682 393.596 78.4832C396.098 73.6426 399.907 69.6051 404.586 66.8309C409.266 64.0567 414.628 62.6575 420.062 62.7929H467.18L463.491 92.7414ZM417.814 80.5736C416.397 80.4978 414.98 80.7241 413.657 81.2378C412.333 81.7514 411.133 82.5406 410.136 83.5534C408.331 85.401 407.328 87.8893 407.344 90.4759C407.298 92.6653 408.109 94.7855 409.602 96.383C410.418 97.2194 411.403 97.8709 412.491 98.2937C413.578 98.7164 414.744 98.9007 415.908 98.834H446.001L448.259 80.5772L417.814 80.5736Z" fill="#133E87"/>
<path d="M472.299 115.656V98.9499H544.501C545.806 99.02 547.111 98.8234 548.338 98.372C549.565 97.9206 550.688 97.2237 551.638 96.3238C553.118 94.8676 554.007 92.9126 554.134 90.8369V88.4489C554.006 86.3725 553.117 84.4169 551.638 82.9585C550.678 82.081 549.55 81.407 548.324 80.9768C547.097 80.5466 545.797 80.3691 544.501 80.4549H487.879V63.7457H544.501C549.535 63.5935 554.514 64.8327 558.894 67.3277C562.696 69.5464 565.822 72.7644 567.934 76.6348C569.817 80.2913 570.834 84.334 570.908 88.4489V91.075C570.754 95.1029 569.74 99.0506 567.934 102.651C565.848 106.571 562.718 109.834 558.894 112.077C554.514 114.571 549.535 115.809 544.501 115.656H472.299ZM514.408 46.1537C514.399 45.0544 514.609 43.9643 515.024 42.9469C515.439 41.9295 516.052 41.0052 516.826 40.2276C517.601 39.4501 518.522 38.835 519.536 38.4181C520.55 38.0011 521.637 37.7907 522.732 37.7991C524.043 37.7706 525.339 38.0725 526.503 38.6769C527.667 39.2813 528.662 40.1689 529.395 41.2586C530.469 42.6662 531.054 44.388 531.06 46.1607C531.088 47.4753 530.787 48.7761 530.185 49.9439C529.583 51.1117 528.698 52.1092 527.612 52.8452C526.209 53.9232 524.492 54.5099 522.725 54.5153C521.397 54.5542 520.08 54.2575 518.895 53.6524C517.711 53.0473 516.697 52.1532 515.947 51.0523C514.941 49.6186 514.404 47.9071 514.408 46.1537Z" fill="#133E87"/>
<path d="M624.488 98.9503V115.656H593.917L604.503 28.6643H621.395L612.705 98.9503H624.488Z" fill="#133E87"/>
<path d="M669.085 62.675L665.755 89.8818C665.14 96.8435 662.255 103.408 657.546 108.559C655.12 110.977 652.215 112.858 649.019 114.08C645.823 115.302 642.408 115.84 638.992 115.656H622.822V98.9507H638.999C641.491 99.0978 643.949 98.3117 645.896 96.7447C647.692 94.9966 648.757 92.6276 648.873 90.1199L652.321 62.675H669.085ZM652.552 45.8072C652.544 44.7083 652.754 43.6188 653.169 42.602C653.585 41.5852 654.198 40.6615 654.972 39.8844C655.747 39.1073 656.668 38.4925 657.681 38.0757C658.695 37.6588 659.781 37.4482 660.876 37.4561C662.186 37.4273 663.483 37.729 664.647 38.3334C665.811 38.9378 666.805 39.8257 667.539 40.9156C668.614 42.3223 669.199 44.0448 669.204 45.8177C669.233 47.1326 668.933 48.4338 668.33 49.6018C667.728 50.7698 666.842 51.7671 665.755 52.5021C664.353 53.5806 662.636 54.1673 660.869 54.1723C659.541 54.2113 658.224 53.9149 657.04 53.3104C655.856 52.706 654.842 51.8128 654.091 50.7128C653.086 49.2759 652.549 47.5625 652.552 45.8072Z" fill="#133E87"/>
<path d="M698.215 90.9556C698.193 92.8214 698.843 94.6323 700.044 96.0568C701.245 97.4812 702.918 98.4237 704.755 98.7115C705.698 98.8758 706.653 98.9554 707.61 98.9496H709.156V115.655H706.42C702.627 115.674 698.868 114.945 695.356 113.509L691.67 143.818H675.019L684.652 63.7454H701.405L698.197 89.6566L698.215 90.9556Z" fill="#133E87"/>
<path d="M753.296 63.7454L750.082 89.8807C749.466 96.8424 746.581 103.407 741.873 108.558C739.446 110.976 736.541 112.856 733.345 114.079C730.15 115.301 726.734 115.838 723.319 115.655H707.142V98.9496H723.319C725.812 99.0963 728.27 98.3102 730.219 96.7437C732.012 94.9942 733.076 92.6257 733.193 90.1188L736.522 63.7454H753.296ZM721.186 137.759C721.178 136.66 721.387 135.57 721.803 134.553C722.218 133.536 722.831 132.612 723.606 131.835C724.38 131.058 725.301 130.443 726.315 130.026C727.329 129.609 728.415 129.399 729.51 129.407C730.821 129.379 732.117 129.68 733.282 130.285C734.446 130.889 735.44 131.777 736.173 132.867C737.249 134.274 737.834 135.996 737.838 137.769C737.866 139.084 737.566 140.384 736.963 141.552C736.361 142.72 735.476 143.718 734.39 144.453C732.987 145.531 731.27 146.118 729.503 146.124C728.175 146.162 726.858 145.865 725.673 145.261C724.488 144.657 723.474 143.764 722.722 142.664C721.716 141.228 721.177 139.514 721.179 137.759H721.186Z" fill="#133E87"/>
</svg>
